<svg width="24" height="24" viewBox="0 0 24 24" fill="none" xmlns="http://www.w3.org/2000/svg">
<path d="M12 24C18.5953 24 24 18.5953 24 12C24 5.40472 18.5953 0 12 0C5.40472 0 0 5.40472 0 12C0 18.5953 5.40472 24 12 24Z" fill="#E5646E"/>
<path d="M12 2.85938C6.96552 2.85938 2.85938 6.96552 2.85938 12C2.85938 17.0343 6.96552 21.1406 12 21.1406C17.0345 21.1406 21.1406 17.0343 21.1406 12C21.1406 6.96552 17.0345 2.85938 12 2.85938Z" fill="#B34646"/>
<path d="M14.1094 12C15.6562 12 16.9219 10.7344 16.9219 9.1875C16.9219 7.64062 15.6562 6.375 14.1094 6.375H9.89062V10.5938H8.48438V12H9.89062V13.4062H8.48438V14.8125H9.89062V17.625H11.2969V14.8125H14.8125V13.4062H11.2969V12H14.1094ZM11.2969 7.78125H14.1094C14.8828 7.78125 15.5156 8.41406 15.5156 9.1875C15.5156 9.96094 14.8828 10.5938 14.1094 10.5938H11.2969V7.78125Z" fill="white"/>
</svg>
