<svg width="86" height="41" viewBox="0 0 86 41" fill="none" xmlns="http://www.w3.org/2000/svg">
<path d="M13.4555 9.84833V19.7882C13.4555 25.2358 10.7511 27.095 7.16333 27.095C3.57514 27.095 0.844254 25.2358 0.844254 19.7882V16.542C1.83632 16.555 1.09573 16.5474 3.06643 16.5439V19.8399C3.06643 23.9193 4.86053 25.2102 7.16333 25.2102C9.49263 25.2102 11.3136 23.9193 11.3136 19.8399V9.84833H13.4555Z" fill="white"/>
<path d="M13.4555 9.84833V19.7882C13.4555 25.2358 10.7511 27.095 7.16333 27.095C3.57514 27.095 0.844254 25.2358 0.844254 19.7882V16.542C1.83632 16.555 1.09573 16.5474 3.06643 16.5439V19.8399C3.06643 23.9193 4.86053 25.2102 7.16333 25.2102C9.49263 25.2102 11.3136 23.9193 11.3136 19.8399V9.84833H13.4555Z" fill="white"/>
<path d="M13.4555 9.84833V19.7882C13.4555 25.2358 10.7511 27.095 7.16333 27.095C3.57514 27.095 0.844254 25.2358 0.844254 19.7882V16.542C1.83632 16.555 1.09573 16.5474 3.06643 16.5439V19.8399C3.06643 23.9193 4.86053 25.2102 7.16333 25.2102C9.49263 25.2102 11.3136 23.9193 11.3136 19.8399V9.84833H13.4555Z" stroke="white" stroke-width="1.5" stroke-linecap="round" stroke-linejoin="round"/>
<path d="M3.06643 9.84833V13.2863C1.09803 13.2882 1.83863 13.2928 0.844254 13.2851V9.84833H3.06643Z" fill="white"/>
<path d="M3.06643 9.84833V13.2863C1.09803 13.2882 1.83863 13.2928 0.844254 13.2851V9.84833H3.06643Z" stroke="white"/>
<path d="M3.06643 9.84833V13.194C1.09803 13.1959 1.83863 13.2002 0.844254 13.1933V9.84833H3.06643Z" fill="white"/>
<path d="M3.06643 9.84833V13.194C1.09803 13.1959 1.83863 13.2002 0.844254 13.1933V9.84833H3.06643Z" stroke="white" stroke-width="1.5" stroke-linecap="round" stroke-linejoin="round"/>
<path d="M17.1512 26.785H19.3465V17.6971C20.6588 16.4318 21.5691 15.7605 22.9079 15.7605C24.6217 15.7605 25.3712 16.7674 25.3712 19.1169V26.785H27.5668V18.833C27.5668 15.6315 26.3352 13.9277 23.6039 13.9277C21.8102 13.9277 20.4715 14.8569 19.2394 16.0445H19.1592L18.9718 14.2373H17.1512V26.785Z" fill="white"/>
<path d="M17.1512 26.785H19.3465V17.6971C20.6588 16.4318 21.5691 15.7605 22.9079 15.7605C24.6217 15.7605 25.3712 16.7674 25.3712 19.1169V26.785H27.5668V18.833C27.5668 15.6315 26.3352 13.9277 23.6039 13.9277C21.8102 13.9277 20.4715 14.8569 19.2394 16.0445H19.1592L18.9718 14.2373H17.1512V26.785Z" stroke="white"/>
<path d="M17.1512 26.785H19.3465V17.6971C20.6588 16.4318 21.5691 15.7605 22.9079 15.7605C24.6217 15.7605 25.3712 16.7674 25.3712 19.1169V26.785H27.5668V18.833C27.5668 15.6315 26.3352 13.9277 23.6039 13.9277C21.8102 13.9277 20.4715 14.8569 19.2394 16.0445H19.1592L18.9718 14.2373H17.1512V26.785Z" fill="white"/>
<path d="M17.1512 26.785H19.3465V17.6971C20.6588 16.4318 21.5691 15.7605 22.9079 15.7605C24.6217 15.7605 25.3712 16.7674 25.3712 19.1169V26.785H27.5668V18.833C27.5668 15.6315 26.3352 13.9277 23.6039 13.9277C21.8102 13.9277 20.4715 14.8569 19.2394 16.0445H19.1592L18.9718 14.2373H17.1512V26.785Z" stroke="white" stroke-width="1.5" stroke-linecap="round" stroke-linejoin="round"/>
<path d="M33.993 14.2373V26.785H31.7973V14.2373H33.993Z" fill="white"/>
<path d="M33.993 14.2373V26.785H31.7973V14.2373H33.993Z" stroke="#151C1F"/>
<path d="M33.993 14.2373V26.785H31.7973V14.2373H33.993Z" fill="white"/>
<path d="M33.993 14.2373V26.785H31.7973V14.2373H33.993Z" stroke="white" stroke-width="1.5" stroke-linecap="round" stroke-linejoin="round"/>
<path d="M42.4809 27.095C43.2845 27.095 44.1679 26.8623 44.8908 26.63L44.4624 25.0295C44.0339 25.1845 43.445 25.3652 42.9896 25.3652C41.4904 25.3652 40.9817 24.4872 40.9817 22.938V15.9672H44.4893V14.2373H40.9817V10.7263H39.1342L38.8662 14.2373L36.8314 14.3667V15.9672H38.7591V22.9123C38.7591 25.3908 39.6963 27.095 42.4809 27.095V27.095Z" fill="#151C1F"/>
<path d="M42.4809 27.095C43.2845 27.095 44.1679 26.8623 44.8908 26.63L44.4624 25.0295C44.0339 25.1845 43.445 25.3652 42.9896 25.3652C41.4904 25.3652 40.9817 24.4872 40.9817 22.938V15.9672H44.4893V14.2373H40.9817V10.7263H39.1342L38.8662 14.2373L36.8314 14.3667V15.9672H38.7591V22.9123C38.7591 25.3908 39.6963 27.095 42.4809 27.095V27.095Z" stroke="white"/>
<path d="M42.4809 27.095C43.2845 27.095 44.1679 26.8623 44.8908 26.63L44.4624 25.0295C44.0339 25.1845 43.445 25.3652 42.9896 25.3652C41.4904 25.3652 40.9817 24.4872 40.9817 22.938V15.9672H44.4893V14.2373H40.9817V10.7263H39.1342L38.8662 14.2373L36.8314 14.3667V15.9672H38.7591V22.9123C38.7591 25.3908 39.6963 27.095 42.4809 27.095V27.095Z" fill="white"/>
<path d="M42.4809 27.095C43.2845 27.095 44.1679 26.8623 44.8908 26.63L44.4624 25.0295C44.0339 25.1845 43.445 25.3652 42.9896 25.3652C41.4904 25.3652 40.9817 24.4872 40.9817 22.938V15.9672H44.4893V14.2373H40.9817V10.7263H39.1342L38.8662 14.2373L36.8314 14.3667V15.9672H38.7591V22.9123C38.7591 25.3908 39.6963 27.095 42.4809 27.095V27.095Z" stroke="white" stroke-width="1.5" stroke-linecap="round" stroke-linejoin="round"/>
<path d="M47.4348 32.078H49.6301V27.8436L49.5767 25.6491C50.7815 26.5527 51.9866 27.095 53.1914 27.095C56.1634 27.095 58.8144 24.5905 58.8144 20.3305C58.8144 16.4318 57.0203 13.9277 53.6732 13.9277C52.1471 13.9277 50.7012 14.7279 49.523 15.6832H49.4427L49.2554 14.2373H47.4348V32.078ZM52.8167 25.3135C51.9597 25.3135 50.8083 24.9518 49.6301 23.9966V17.4131C50.9155 16.3028 52.0131 15.7088 53.1111 15.7088C55.5744 15.7088 56.5385 17.5681 56.5385 20.3305C56.5385 23.4286 54.9586 25.3135 52.8167 25.3135Z" fill="white"/>
<path d="M47.4348 32.078H49.6301V27.8436L49.5767 25.6491C50.7815 26.5527 51.9866 27.095 53.1914 27.095C56.1634 27.095 58.8144 24.5905 58.8144 20.3305C58.8144 16.4318 57.0203 13.9277 53.6732 13.9277C52.1471 13.9277 50.7012 14.7279 49.523 15.6832H49.4427L49.2554 14.2373H47.4348V32.078ZM52.8167 25.3135C51.9597 25.3135 50.8083 24.9518 49.6301 23.9966V17.4131C50.9155 16.3028 52.0131 15.7088 53.1111 15.7088C55.5744 15.7088 56.5385 17.5681 56.5385 20.3305C56.5385 23.4286 54.9586 25.3135 52.8167 25.3135Z" stroke="#151C1F"/>
<path d="M47.4348 32.078H49.6301V27.8436L49.5767 25.6491C50.7815 26.5527 51.9866 27.095 53.1914 27.095C56.1634 27.095 58.8144 24.5905 58.8144 20.3305C58.8144 16.4318 57.0203 13.9277 53.6732 13.9277C52.1471 13.9277 50.7012 14.7279 49.523 15.6832H49.4427L49.2554 14.2373H47.4348V32.078ZM52.8167 25.3135C51.9597 25.3135 50.8083 24.9518 49.6301 23.9966V17.4131C50.9155 16.3028 52.0131 15.7088 53.1111 15.7088C55.5744 15.7088 56.5385 17.5681 56.5385 20.3305C56.5385 23.4286 54.9586 25.3135 52.8167 25.3135Z" fill="white"/>
<path d="M47.4348 32.078H49.6301V27.8436L49.5767 25.6491C50.7815 26.5527 51.9866 27.095 53.1914 27.095C56.1634 27.095 58.8144 24.5905 58.8144 20.3305C58.8144 16.4318 57.0203 13.9277 53.6732 13.9277C52.1471 13.9277 50.7012 14.7279 49.523 15.6832H49.4427L49.2554 14.2373H47.4348V32.078ZM52.8167 25.3135C51.9597 25.3135 50.8083 24.9518 49.6301 23.9966V17.4131C50.9155 16.3028 52.0131 15.7088 53.1111 15.7088C55.5744 15.7088 56.5385 17.5681 56.5385 20.3305C56.5385 23.4286 54.9586 25.3135 52.8167 25.3135Z" stroke="white" stroke-width="1.5" stroke-linecap="round" stroke-linejoin="round"/>
<path d="M64.9192 27.095C66.5525 27.095 67.9984 26.2688 69.2304 25.2875H69.3106L69.498 26.785H71.3186V19.0913C71.3186 15.9672 69.9798 13.9277 66.7936 13.9277C64.705 13.9277 62.8844 14.8053 61.6793 15.5542L62.5362 17.0258C63.5536 16.3545 64.9192 15.6832 66.4189 15.6832C68.5608 15.6832 69.0964 17.2324 69.0964 18.833C63.5536 19.4269 61.1172 20.7951 61.1172 23.5319C61.1172 25.7781 62.7504 27.095 64.9192 27.095V27.095ZM65.5619 25.3908C64.2766 25.3908 63.2591 24.7972 63.2591 23.3769C63.2591 21.7764 64.7588 20.7435 69.0964 20.2272V23.7126C67.8379 24.7972 66.8205 25.3908 65.5619 25.3908V25.3908Z" fill="white"/>
<path d="M64.9192 27.095C66.5525 27.095 67.9984 26.2688 69.2304 25.2875H69.3106L69.498 26.785H71.3186V19.0913C71.3186 15.9672 69.9798 13.9277 66.7936 13.9277C64.705 13.9277 62.8844 14.8053 61.6793 15.5542L62.5362 17.0258C63.5536 16.3545 64.9192 15.6832 66.4189 15.6832C68.5608 15.6832 69.0964 17.2324 69.0964 18.833C63.5536 19.4269 61.1172 20.7951 61.1172 23.5319C61.1172 25.7781 62.7504 27.095 64.9192 27.095V27.095ZM65.5619 25.3908C64.2766 25.3908 63.2591 24.7972 63.2591 23.3769C63.2591 21.7764 64.7588 20.7435 69.0964 20.2272V23.7126C67.8379 24.7972 66.8205 25.3908 65.5619 25.3908V25.3908Z" stroke="#151C1F"/>
<path d="M64.9192 27.095C66.5525 27.095 67.9984 26.2688 69.2304 25.2875H69.3106L69.498 26.785H71.3186V19.0913C71.3186 15.9672 69.9798 13.9277 66.7936 13.9277C64.705 13.9277 62.8844 14.8053 61.6793 15.5542L62.5362 17.0258C63.5536 16.3545 64.9192 15.6832 66.4189 15.6832C68.5608 15.6832 69.0964 17.2324 69.0964 18.833C63.5536 19.4269 61.1172 20.7951 61.1172 23.5319C61.1172 25.7781 62.7504 27.095 64.9192 27.095V27.095ZM65.5619 25.3908C64.2766 25.3908 63.2591 24.7972 63.2591 23.3769C63.2591 21.7764 64.7588 20.7435 69.0964 20.2272V23.7126C67.8379 24.7972 66.8205 25.3908 65.5619 25.3908V25.3908Z" fill="white"/>
<path d="M64.9192 27.095C66.5525 27.095 67.9984 26.2688 69.2304 25.2875H69.3106L69.498 26.785H71.3186V19.0913C71.3186 15.9672 69.9798 13.9277 66.7936 13.9277C64.705 13.9277 62.8844 14.8053 61.6793 15.5542L62.5362 17.0258C63.5536 16.3545 64.9192 15.6832 66.4189 15.6832C68.5608 15.6832 69.0964 17.2324 69.0964 18.833C63.5536 19.4269 61.1172 20.7951 61.1172 23.5319C61.1172 25.7781 62.7504 27.095 64.9192 27.095V27.095ZM65.5619 25.3908C64.2766 25.3908 63.2591 24.7972 63.2591 23.3769C63.2591 21.7764 64.7588 20.7435 69.0964 20.2272V23.7126C67.8379 24.7972 66.8205 25.3908 65.5619 25.3908V25.3908Z" stroke="white" stroke-width="1.5" stroke-linecap="round" stroke-linejoin="round"/>
<path d="M75.1978 32.1809C77.8219 32.1809 79.1607 30.2965 80.071 27.818L84.9711 14.2373H82.8291L80.4995 21.1825C80.1516 22.2927 79.7765 23.5836 79.4018 24.7195H79.2947C78.8874 23.5362 78.4679 22.3571 78.0362 21.1825L75.3855 14.2373H73.1096L78.3306 26.8111L78.0362 27.7403C77.5006 29.2895 76.5634 30.4254 75.0911 30.4254C74.7697 30.4254 74.3677 30.3221 74.1001 30.2448L73.6717 31.923C74.1001 32.078 74.6088 32.1809 75.1978 32.1809V32.1809Z" fill="white"/>
<path d="M75.1978 32.1809C77.8219 32.1809 79.1607 30.2965 80.071 27.818L84.9711 14.2373H82.8291L80.4995 21.1825C80.1516 22.2927 79.7765 23.5836 79.4018 24.7195H79.2947C78.8874 23.5362 78.4679 22.3571 78.0362 21.1825L75.3855 14.2373H73.1096L78.3306 26.8111L78.0362 27.7403C77.5006 29.2895 76.5634 30.4254 75.0911 30.4254C74.7697 30.4254 74.3677 30.3221 74.1001 30.2448L73.6717 31.923C74.1001 32.078 74.6088 32.1809 75.1978 32.1809V32.1809Z" stroke="#151C1F"/>
<path d="M75.1978 32.1809C77.8219 32.1809 79.1607 30.2965 80.071 27.818L84.9711 14.2373H82.8291L80.4995 21.1825C80.1516 22.2927 79.7765 23.5836 79.4018 24.7195H79.2947C78.8874 23.5362 78.4679 22.3571 78.0362 21.1825L75.3855 14.2373H73.1096L78.3306 26.8111L78.0362 27.7403C77.5006 29.2895 76.5634 30.4254 75.0911 30.4254C74.7697 30.4254 74.3677 30.3221 74.1001 30.2448L73.6717 31.923C74.1001 32.078 74.6088 32.1809 75.1978 32.1809V32.1809Z" fill="white"/>
<path d="M75.1978 32.1809C77.8219 32.1809 79.1607 30.2965 80.071 27.818L84.9711 14.2373H82.8291L80.4995 21.1825C80.1516 22.2927 79.7765 23.5836 79.4018 24.7195H79.2947C78.8874 23.5362 78.4679 22.3571 78.0362 21.1825L75.3855 14.2373H73.1096L78.3306 26.8111L78.0362 27.7403C77.5006 29.2895 76.5634 30.4254 75.0911 30.4254C74.7697 30.4254 74.3677 30.3221 74.1001 30.2448L73.6717 31.923C74.1001 32.078 74.6088 32.1809 75.1978 32.1809V32.1809Z" stroke="white" stroke-width="1.5" stroke-linecap="round" stroke-linejoin="round"/>
<path d="M32.9219 8.91871C33.7788 8.93862 34.4484 9.46102 34.4484 10.2873C34.4484 11.0876 33.7788 11.6555 32.9219 11.6555C32.0653 11.6555 30.3722 9.00789 30.0593 8.27078C29.905 7.90796 31.1654 8.87776 32.9219 8.91871Z" fill="#429A3A"/>
<path d="M32.9219 8.91871C33.7788 8.93862 34.4484 9.46102 34.4484 10.2873C34.4484 11.0876 33.7788 11.6555 32.9219 11.6555C32.0653 11.6555 30.3722 9.00789 30.0593 8.27078C29.905 7.90796 31.1654 8.87776 32.9219 8.91871Z" stroke="#429A3A" stroke-width="1.5" stroke-linecap="round" stroke-linejoin="round"/>
</svg>
