<svg width="40" height="40" viewBox="0 0 40 40" fill="none" xmlns="http://www.w3.org/2000/svg">
<path d="M19.995 39.8237H20.005C31.0479 39.8237 40 30.9111 40 19.9168V19.9069C40 8.91263 31.0479 0 20.005 0H19.995C8.95208 0 0 8.91263 0 19.9069V19.9168C0 30.9111 8.95208 39.8237 19.995 39.8237Z" fill="url(#paint0_linear)"/>
<path d="M28.251 15.7673C28.1526 15.4026 27.9597 15.07 27.6914 14.803C27.4232 14.5359 27.0892 14.3438 26.7229 14.2459C24.481 13.9749 22.2234 13.8528 19.9652 13.8803C17.707 13.8525 15.4495 13.9747 13.2076 14.2459C12.8399 14.3432 12.5043 14.535 12.2344 14.802C11.9644 15.069 11.7697 15.4018 11.6695 15.7673C11.1932 18.5099 11.1932 21.3136 11.6695 24.0562C11.7697 24.4216 11.9644 24.7545 12.2344 25.0215C12.5043 25.2885 12.8399 25.4803 13.2076 25.5776C15.4495 25.8488 17.707 25.9709 19.9652 25.9432C22.2234 25.9707 24.481 25.8486 26.7229 25.5776C27.0892 25.4797 27.4232 25.2875 27.6914 25.0205C27.9597 24.7535 28.1526 24.4209 28.251 24.0562C28.7274 21.3136 28.7274 18.5099 28.251 15.7673Z" fill="#B34646"/>
<path d="M18.2684 22.4951L22.7635 19.9067L18.2684 17.3184V22.4852V22.4951Z" fill="#181724"/>
<defs>
<linearGradient id="paint0_linear" x1="55.3333" y1="35.5095" x2="14.4603" y2="14.766" gradientUnits="userSpaceOnUse">
<stop stop-color="#391E25"/>
<stop offset="1" stop-color="#12121C"/>
</linearGradient>
</defs>
</svg>
