<svg width="60" height="60" viewBox="0 0 60 60" fill="none" xmlns="http://www.w3.org/2000/svg">
<path d="M17.8392 34.8264L13.1037 36.0952L8.36822 37.3641L6.99745 41.7193L16.5477 48.9486L21.2038 37.9127L17.8392 34.8264Z" fill="#DF4D60"/>
<path d="M11.7329 40.4504L6.99745 41.7193L8.36822 37.3641L11.7329 40.4504Z" fill="#FB7B76"/>
<path d="M21.2036 37.9113L16.4682 39.1802L17.8389 34.825L21.2036 37.9113Z" fill="#FB7B76"/>
<path d="M17.839 34.8249L16.4682 39.18L13.1035 36.0938L17.839 34.8249Z" fill="#FF5364"/>
<path d="M13.1034 36.0939L11.7326 40.4491L8.36792 37.3628L13.1034 36.0939Z" fill="#FF5364"/>
<path d="M16.468 39.1804L11.7326 40.4492L13.1033 36.0941L16.468 39.1804Z" fill="#FB7B76"/>
<path d="M16.4681 39.1799L16.4843 41.3507L16.5013 43.1733L16.5475 48.947L11.7327 40.4487L16.4681 39.1799Z" fill="#FF5364"/>
<path d="M41 15.1909H27H13L6 26.1909L27 53.1909L48 26.1909L41 15.1909Z" fill="#DF4D60"/>
<path d="M20 26.1909H6L13 15.1909L20 26.1909Z" fill="#FB7B76"/>
<path d="M47.9998 26.1909H33.9998L40.9998 15.1909L47.9998 26.1909Z" fill="#FB7B76"/>
<path d="M40.9998 15.1909L33.9998 26.1909L26.9998 15.1909H40.9998Z" fill="#FF5364"/>
<path d="M27 15.1909L20 26.1909L13 15.1909H27Z" fill="#FF5364"/>
<path d="M33.9998 26.1909H19.9998L26.9998 15.1909L33.9998 26.1909Z" fill="#FB7B76"/>
<path d="M33.9998 26.1909L32.4398 32.1909L31.1398 37.2309L26.9998 53.1909L19.9998 26.1909H33.9998Z" fill="#FF5364"/>
<path d="M51.3583 10.1774L43.6309 8.10681L35.9035 6.03625L30.4129 11.0725L38.0108 29.0812L53.5952 17.2842L51.3583 10.1774Z" fill="#DF4D60"/>
<path d="M38.1404 13.1431L30.4129 11.0725L35.9035 6.03625L38.1404 13.1431Z" fill="#FB7B76"/>
<path d="M53.5954 17.2832L45.868 15.2127L51.3586 10.1764L53.5954 17.2832Z" fill="#FB7B76"/>
<path d="M51.3588 10.1765L45.8682 15.2128L43.6313 8.10596L51.3588 10.1765Z" fill="#FF5364"/>
<path d="M43.6312 8.10571L38.1407 13.142L35.9038 6.03516L43.6312 8.10571Z" fill="#FF5364"/>
<path d="M45.8679 15.2129L38.1405 13.1423L43.631 8.10608L45.8679 15.2129Z" fill="#FB7B76"/>
<path d="M45.868 15.2126L44.1196 18.2937L42.6567 20.8833L38.0111 29.0802L38.1406 13.1421L45.868 15.2126Z" fill="#FF5364"/>
</svg>
