<svg width="60" height="60" viewBox="0 0 60 60" fill="none" xmlns="http://www.w3.org/2000/svg">
<g clip-path="url(#clip0)">
<path d="M58.7531 38.9751V45.5819C58.7531 47.8257 52.7696 49.6956 45.4772 49.6956C38.1848 49.6956 32.2013 47.8881 32.2013 45.6443V44.8964L32.0767 39.6608H32.1389C33.1986 41.593 38.6211 43.0889 45.2278 43.0889C51.8344 43.0889 58.6906 41.2191 58.6906 38.9752H58.7531V38.9751Z" fill="#F4B844"/>
<path d="M58.7533 32.4933V38.9753H58.691C58.691 41.2191 52.5828 43.089 45.2282 43.089C37.8735 43.089 33.1988 41.5931 32.1393 39.6609H32.0771V38.2897L31.9524 32.6802C32.4511 34.7993 38.1852 36.4822 45.2283 36.4822C52.2714 36.4822 58.5042 34.7369 58.6911 32.4932H58.7533V32.4933Z" fill="#F4B844"/>
<path d="M58.753 32.3686C58.753 32.4308 58.753 32.4308 58.6907 32.4932C58.5037 34.737 52.4579 36.4822 45.2279 36.4822C37.9978 36.4822 32.4507 34.7994 31.952 32.6803V32.3687C31.9429 32.2408 31.9643 32.1127 32.0143 31.9947C32.6999 29.9378 38.2471 28.3174 45.0408 28.3174H45.2277C52.5824 28.3173 58.753 30.1248 58.753 32.3686Z" fill="#FEDB41"/>
<path d="M45.0409 28.1299V28.3168C38.2471 28.3168 32.6999 29.9374 32.0143 31.9941L31.4534 31.6825C30.1629 31.6871 28.8731 31.6247 27.589 31.4956H27.2774C26.653 28.6704 25.147 26.1167 22.9768 24.2032H23.0391C25.801 24.8167 28.6243 25.1095 31.4534 25.0757C38.8081 25.0757 44.9162 23.2682 44.9162 21.0244H45.0409V28.1299Z" fill="#F4B844"/>
<path d="M45.0409 14.4177V21.0245H44.9162C44.9162 23.2683 38.8081 25.0758 31.4534 25.0758C28.6244 25.1096 25.801 24.8168 23.0391 24.2033H22.9768C21.5936 23.0644 20.0076 22.1974 18.3022 21.6479V21.5232L18.1152 14.6048C18.6139 16.7239 24.348 18.4691 31.3911 18.4691C38.4342 18.4691 44.8539 16.5994 44.8539 14.3555L45.0409 14.4177Z" fill="#F4B844"/>
<path d="M44.9164 14.4179C44.9164 16.6617 38.8083 18.5316 31.4536 18.5316C24.0989 18.5316 18.6764 16.7863 18.1777 14.6672V14.4179C18.1777 12.1741 24.0989 10.3042 31.4536 10.3042C38.8083 10.3042 44.9164 12.174 44.9164 14.4179Z" fill="#FEDB41"/>
<path d="M32.0766 39.6605L32.2012 44.8961H31.578C28.8311 44.9352 26.0896 44.6422 23.413 44.0235L23.2261 43.8366C24.9754 42.291 26.2506 40.2811 26.9035 38.04H27.2775C28.6618 38.222 30.0573 38.3052 31.4535 38.2894H32.0767L32.0766 39.6605Z" fill="#F4B844"/>
<path d="M31.9521 32.6801L32.0768 38.2896H31.4535C30.0574 38.3054 28.6619 38.2222 27.2776 38.0402H26.9036C27.3375 36.7989 27.5485 35.4907 27.5269 34.1759C27.5058 33.2986 27.4224 32.4237 27.2776 31.5581H27.5892C28.8732 31.6872 30.1631 31.7496 31.4535 31.745L32.0145 32.0567C31.9644 32.1746 31.943 32.3028 31.9522 32.4307V32.6801H31.9521Z" fill="#F4B844"/>
<path d="M27.2775 31.5577C27.4223 32.4233 27.5056 33.298 27.5268 34.1754C27.5484 35.4902 27.3373 36.7985 26.9035 38.0398C26.2505 40.2808 24.9755 42.2908 23.2262 43.8363C20.8344 46.0473 17.6951 47.2719 14.438 47.2644C7.22643 46.7658 1.78447 40.5156 2.2829 33.304C2.7335 26.7866 7.92064 21.5995 14.438 21.1489C15.7472 21.1378 17.0503 21.3269 18.3023 21.7098C20.0077 22.2593 21.5938 23.1264 22.9769 24.2652C25.147 26.1788 26.653 28.7325 27.2775 31.5577Z" fill="#FEDB41"/>
<path d="M59.9998 32.2435C59.7504 28.8154 53.1438 27.195 46.2876 27.0703V14.4177C46.2921 14.1955 46.2268 13.9775 46.1007 13.7945C45.3528 10.5535 38.185 9.05762 31.4536 9.05762C24.7221 9.05762 16.9311 10.7405 16.9311 14.4179V14.7919L17.0558 20.1521C16.1954 19.9705 15.3172 19.8869 14.438 19.9028C6.52104 19.8457 0.056919 26.2178 0.000132484 34.1347C-0.0566541 42.0517 6.31537 48.5158 14.2323 48.5726C17.5769 48.5966 20.8246 47.4503 23.4132 45.3323C25.9163 45.8441 28.4626 46.1155 31.0173 46.1426C31.7029 49.446 38.8083 50.9419 45.4773 50.9419C52.1464 50.9419 59.9998 49.259 59.9998 45.5816V32.2435ZM33.3233 39.2242V35.6091C36.1281 37.0427 40.8027 37.7283 45.2903 37.7283C49.7778 37.7283 54.3902 37.0426 57.5065 35.4845V38.6008C57.5065 38.7255 57.4443 38.8502 57.4443 38.9748C57.4443 39.0995 53.2683 41.8419 45.228 41.8419C38.6836 41.8419 34.2583 40.3461 33.3233 39.2242ZM19.6113 20.8375L19.4866 17.6588C22.2914 19.0923 26.966 19.7156 31.4536 19.7156C35.9411 19.7156 40.678 19.03 43.7945 17.4718V20.5259C43.7945 20.6505 43.6698 20.8375 43.6698 20.9622C43.6698 21.0868 39.4939 23.8293 31.4536 23.8293C28.7282 23.8508 26.0093 23.558 23.351 22.9567H23.2263C22.1271 22.0834 20.9101 21.37 19.6113 20.8375ZM31.4536 26.3223C36.1282 26.3223 40.678 25.6367 43.7945 24.0785V27.0703C38.8083 27.2572 33.5104 28.3168 31.516 30.436H31.4537L28.2127 30.3113C27.7834 28.7686 27.0873 27.3132 26.1558 26.0107C27.9147 26.2113 29.6833 26.3154 31.4536 26.3223ZM28.7111 32.8667H30.7679V36.9804L28.3995 36.8557C28.5988 35.955 28.7032 35.0358 28.7111 34.1133C28.7735 33.7394 28.7111 33.3031 28.7111 32.8667ZM27.7762 39.3488C28.7734 39.4735 29.7706 39.4735 30.8302 39.5358V43.6495C29.0573 43.6072 27.2883 43.4616 25.5324 43.2132C26.4954 42.0625 27.2542 40.7555 27.7762 39.3488ZM57.5067 32.3681C57.5067 33.2407 53.0191 35.2353 45.2281 35.2353C37.4371 35.2353 33.3859 33.3031 33.1988 32.3059C33.0118 31.3086 37.7488 29.3765 45.0411 29.3765H45.228C53.206 29.3763 57.5067 31.6201 57.5067 32.3681ZM31.4536 11.5506C39.2445 11.5506 43.6075 13.5451 43.6698 14.4177C43.7321 15.2903 39.4315 17.2849 31.4536 17.2849C23.4756 17.2849 19.6113 15.6643 19.4242 14.4177C19.4242 13.9191 22.6654 11.5506 31.4536 11.5506ZM22.416 42.9016C17.5968 47.2721 10.1469 46.9082 5.77649 42.089C1.40608 37.2698 1.76982 29.8199 6.58904 25.4495C8.73965 23.4992 11.5348 22.4116 14.438 22.3958C15.6387 22.4085 16.8328 22.5762 17.9907 22.8944C19.5205 23.4116 20.9378 24.2155 22.1667 25.2629C24.1613 26.9417 25.5243 29.25 26.031 31.8073C26.2034 32.5848 26.2871 33.3794 26.2804 34.1758C26.2655 37.4959 24.8646 40.6591 22.416 42.9016ZM45.4773 48.4488C37.6864 48.4488 33.448 46.4543 33.448 45.5816V42.216C36.3151 43.6495 40.9896 44.3351 45.2903 44.3351C49.5909 44.3351 54.3902 43.5872 57.5065 42.0913V45.5816C57.5067 46.2672 53.767 48.4488 45.4773 48.4488Z" fill="#0D0600"/>
<path d="M14.4381 32.5551C13.3022 32.5551 12.3813 31.6342 12.3813 30.4983C12.3813 29.3623 13.3022 28.4414 14.4381 28.4414C15.5741 28.4414 16.495 29.3623 16.495 30.4983C16.495 31.1867 17.0531 31.7448 17.7415 31.7448C18.4407 31.7457 19.0171 31.1966 19.0504 30.4983C19.0241 28.4772 17.6851 26.7087 15.747 26.1354V25.6367C15.747 24.9482 15.1889 24.3901 14.5004 24.3901C13.8119 24.3901 13.2538 24.9482 13.2538 25.6367V26.1354C10.8436 26.8462 9.46596 29.3763 10.1768 31.7865C10.7366 33.6848 12.4594 35.0035 14.438 35.0482C15.5734 35.0138 16.5218 35.9064 16.5562 37.0417C16.5907 38.1771 15.6981 39.1255 14.5627 39.1599C13.4273 39.1944 12.4789 38.3018 12.4445 37.1664C12.4439 37.146 12.4436 37.1255 12.4436 37.105C12.4436 36.4165 11.8855 35.8584 11.197 35.8584C10.5085 35.8584 9.95044 36.4165 9.95044 37.105C9.97669 39.126 11.3157 40.8945 13.2538 41.4679V42.4651C13.2538 43.1536 13.8119 43.7116 14.5004 43.7116C15.1889 43.7116 15.747 43.1536 15.747 42.4651V41.4679C18.1566 40.7549 19.532 38.2236 18.8192 35.814C18.2455 33.8749 16.4605 32.5471 14.4381 32.5551Z" fill="#0D0600"/>
</g>
<defs>
<clipPath id="clip0">
<rect width="60" height="60" fill="white"/>
</clipPath>
</defs>
</svg>
