<svg width="98" height="41" viewBox="0 0 98 41" fill="none" xmlns="http://www.w3.org/2000/svg">
<g clip-path="url(#clip0)">
<path d="M84.1998 18C85.8688 18 87.4566 18.381 88.8814 19.0626C89.1049 19.163 89.3298 19.2832 89.5526 19.4036L88.5756 20.266L87.1109 18.7621L84.5871 20.9675L83.1009 19.3833L78.4601 23.4938L81.4313 26.722L80.2714 27.7242L83.2028 30.9524L82.0427 31.9543L86.2359 36.5459L88.7177 34.3002L90.8763 36.7069C90.4485 37.0277 89.9803 37.3492 89.4721 37.6294C87.9249 38.4914 86.1335 38.9918 84.2204 38.9918C78.3375 38.9918 73.555 34.2809 73.555 28.4869C73.5342 22.732 78.3176 18 84.1998 18ZM82.2455 27.8448L84.7899 25.599L87.07 28.1052L84.5252 30.3508L82.2455 27.8448ZM84.0576 32.1758L86.5812 29.9101L88.8814 32.4162L86.337 34.662L84.0576 32.1758ZM80.4351 23.5743L82.9787 21.3285L85.2583 23.8347L82.7139 26.0804L80.4351 23.5743ZM85.0953 22.3709L86.9883 20.6867L88.6985 22.5515L86.8054 24.2555L85.0953 22.3709ZM88.4744 30.0902L90.3669 28.406L92.077 30.2902L90.1838 31.9755L88.4744 30.0902ZM90.1432 33.8801L92.0364 32.1956L93.7451 34.0602L91.8527 35.764L90.1432 33.8801ZM90.9168 25.218L92.1786 24.0951L93.3181 25.3387L92.0565 26.4612L90.9168 25.218ZM89.2885 21.5087L90.5503 20.3661L91.6906 21.629L90.4278 22.7519L89.2885 21.5087ZM92.5246 28.9276L93.7864 27.8048L94.9465 29.048L93.6647 30.1705L92.5246 28.9276ZM86.846 26.1406L88.7392 24.4563L90.4485 26.3207L88.5561 28.0052L86.846 26.1406Z" fill="#036CB5"/>
<mask id="mask0" mask-type="alpha" maskUnits="userSpaceOnUse" x="3" y="22" width="12" height="11">
<path d="M3.05348 22.3615V32.053H14.1785V22.3615H3.05348Z" fill="white"/>
</mask>
<g mask="url(#mask0)">
<path d="M8.63659 25.2313H8.54059L6.73817 32.053H5.26495L3.05348 22.3615H4.58203L6.11094 29.593H6.20642L7.98063 22.3615H9.19587L11.0933 29.593H11.1888L12.5814 22.3615H14.1785L11.9665 32.053H10.4922L8.63659 25.2313Z" fill="#036CB5"/>
</g>
<path d="M16.1179 27.9272H19.2431C19.1753 26.4923 18.4788 25.9187 17.7419 25.9187C16.9093 25.9187 16.2674 26.561 16.1179 27.9272ZM20.335 30.4977V31.5367C19.7209 31.892 18.9023 32.1656 17.9189 32.1656C15.6263 32.1656 14.6845 30.744 14.6845 28.5846C14.6845 26.506 15.7353 25.0023 17.7829 25.0023C19.4887 25.0023 20.5404 26.1103 20.5404 28.3378V28.8437H16.0905C16.0905 30.4834 16.7589 31.2081 18.1654 31.2081C18.9023 31.2081 19.5848 30.9479 20.335 30.4977Z" fill="#036CB5"/>
<path d="M23.7152 31.0695C24.1521 31.2609 24.6302 31.2892 24.9721 31.2892C25.9819 31.2892 26.7455 30.6595 26.7455 28.4457C26.7455 26.7097 26.1177 26.1492 25.2035 26.1492C24.6571 26.1492 24.2614 26.3 23.7152 26.6002V31.0695H23.7152ZM23.7296 25.5889C24.1381 25.371 24.8341 25.0829 25.5715 25.0829C27.2643 25.0829 28.179 26.2584 28.179 28.4457C28.179 31.002 26.9502 32.2459 24.9721 32.2459C24.248 32.2459 23.1288 32.0134 22.3093 31.575V22.0349L23.7296 21.6937V25.5889H23.7296Z" fill="#036CB5"/>
<path d="M34.3226 29.9966H34.3909L37.3114 22.3555H39.0049V32.0476H37.5308V25.0212H37.4077L34.6227 32.0476H33.7499L30.9643 25.1854H30.8419V32.0476H29.6133V22.3555H31.2654L34.3226 29.9966Z" fill="#036CB5"/>
<path d="M45.0279 28.5841C45.0279 26.739 44.2777 25.9602 43.3495 25.9602C42.4489 25.9602 41.6702 26.739 41.6702 28.5841C41.6702 30.457 42.3809 31.2081 43.3495 31.2081C44.3181 31.2081 45.0279 30.457 45.0279 28.5841ZM40.2375 28.5841C40.2375 26.1912 41.5482 25.0023 43.3495 25.0023C45.1518 25.0023 46.4619 26.1912 46.4619 28.5841C46.4619 30.9211 45.2198 32.1656 43.3495 32.1656C41.4796 32.1656 40.2375 30.9211 40.2375 28.5841Z" fill="#036CB5"/>
<path d="M47.5415 26.0146C48.1557 25.645 49.453 25.0023 51.0223 25.0023C52.6602 25.0023 53.2733 25.645 53.2733 27.0525V32.0015H51.8547V27.3673C51.8547 26.2877 51.3233 26.0963 50.6263 26.0963C50.0809 26.0963 49.3839 26.3427 48.9611 26.5887V32.0014H47.5415V26.0146H47.5415Z" fill="#036CB5"/>
<path d="M56.2781 27.9272H59.4036C59.3364 26.4923 58.6395 25.9187 57.9024 25.9187C57.0695 25.9187 56.4288 26.561 56.2781 27.9272ZM60.4953 30.4977V31.5367C59.8814 31.892 59.0624 32.1656 58.0794 32.1656C55.7876 32.1656 54.8452 30.744 54.8452 28.5846C54.8452 26.506 55.8956 25.0023 57.9433 25.0023C59.6501 25.0023 60.7016 26.1103 60.7016 28.3378V28.8437H56.2512C56.2512 30.4834 56.9201 31.2081 58.3261 31.2081C59.0624 31.2081 59.7459 30.9479 60.4953 30.4977Z" fill="#036CB5"/>
<path d="M66.3712 25.0023H67.8321L65.3613 31.836C64.6778 33.7225 63.8462 34.7068 62.2767 34.7068V33.5867C63.2054 33.5867 63.7778 32.8482 64.1062 31.836L61.4853 25.0023H62.987L64.734 30.0325H64.8159L66.3712 25.0023Z" fill="#036CB5"/>
<rect width="98" height="16" fill="#036CB5"/>
<path d="M23.7344 11C23.6719 10.875 23.6211 10.6523 23.582 10.332C23.0781 10.8555 22.4766 11.1172 21.7773 11.1172C21.1523 11.1172 20.6387 10.9414 20.2363 10.5898C19.8379 10.2344 19.6387 9.78516 19.6387 9.24219C19.6387 8.58203 19.8887 8.07031 20.3887 7.70703C20.8926 7.33984 21.5996 7.15625 22.5098 7.15625H23.5645V6.6582C23.5645 6.2793 23.4512 5.97852 23.2246 5.75586C22.998 5.5293 22.6641 5.41602 22.2227 5.41602C21.8359 5.41602 21.5117 5.51367 21.25 5.70898C20.9883 5.9043 20.8574 6.14062 20.8574 6.41797H19.7676C19.7676 6.10156 19.8789 5.79688 20.1016 5.50391C20.3281 5.20703 20.6328 4.97266 21.0156 4.80078C21.4023 4.62891 21.8262 4.54297 22.2871 4.54297C23.0176 4.54297 23.5898 4.72656 24.0039 5.09375C24.418 5.45703 24.6328 5.95898 24.6484 6.59961V9.51758C24.6484 10.0996 24.7227 10.5625 24.8711 10.9062V11H23.7344ZM21.9355 10.1738C22.2754 10.1738 22.5977 10.0859 22.9023 9.91016C23.207 9.73438 23.4277 9.50586 23.5645 9.22461V7.92383H22.7148C21.3867 7.92383 20.7227 8.3125 20.7227 9.08984C20.7227 9.42969 20.8359 9.69531 21.0625 9.88672C21.2891 10.0781 21.5801 10.1738 21.9355 10.1738ZM30.9648 5.53906H28.8379V11H27.7539V5.53906H25.668V4.66016H30.9648V5.53906ZM36.7305 5.53906H34.6035V11H33.5195V5.53906H31.4336V4.66016H36.7305V5.53906ZM39.9473 11.1172C39.0879 11.1172 38.3887 10.8359 37.8496 10.2734C37.3105 9.70703 37.041 8.95117 37.041 8.00586V7.80664C37.041 7.17773 37.1602 6.61719 37.3984 6.125C37.6406 5.62891 37.9766 5.24219 38.4062 4.96484C38.8398 4.68359 39.3086 4.54297 39.8125 4.54297C40.6367 4.54297 41.2773 4.81445 41.7344 5.35742C42.1914 5.90039 42.4199 6.67773 42.4199 7.68945V8.14062H38.125C38.1406 8.76562 38.3223 9.27148 38.6699 9.6582C39.0215 10.041 39.4668 10.2324 40.0059 10.2324C40.3887 10.2324 40.7129 10.1543 40.9785 9.99805C41.2441 9.8418 41.4766 9.63477 41.6758 9.37695L42.3379 9.89258C41.8066 10.709 41.0098 11.1172 39.9473 11.1172ZM39.8125 5.43359C39.375 5.43359 39.0078 5.59375 38.7109 5.91406C38.4141 6.23047 38.2305 6.67578 38.1602 7.25H41.3359V7.16797C41.3047 6.61719 41.1562 6.19141 40.8906 5.89062C40.625 5.58594 40.2656 5.43359 39.8125 5.43359ZM46.2227 10.2324C46.6094 10.2324 46.9473 10.1152 47.2363 9.88086C47.5254 9.64648 47.6855 9.35352 47.7168 9.00195H48.7422C48.7227 9.36523 48.5977 9.71094 48.3672 10.0391C48.1367 10.3672 47.8281 10.6289 47.4414 10.8242C47.0586 11.0195 46.6523 11.1172 46.2227 11.1172C45.3594 11.1172 44.6719 10.8301 44.1602 10.2559C43.6523 9.67773 43.3984 8.88867 43.3984 7.88867V7.70703C43.3984 7.08984 43.5117 6.54102 43.7383 6.06055C43.9648 5.58008 44.2891 5.20703 44.7109 4.94141C45.1367 4.67578 45.6387 4.54297 46.2168 4.54297C46.9277 4.54297 47.5176 4.75586 47.9863 5.18164C48.459 5.60742 48.7109 6.16016 48.7422 6.83984H47.7168C47.6855 6.42969 47.5293 6.09375 47.248 5.83203C46.9707 5.56641 46.627 5.43359 46.2168 5.43359C45.666 5.43359 45.2383 5.63281 44.9336 6.03125C44.6328 6.42578 44.4824 6.99805 44.4824 7.74805V7.95312C44.4824 8.68359 44.6328 9.24609 44.9336 9.64062C45.2344 10.0352 45.6641 10.2324 46.2227 10.2324ZM54.6719 5.53906H52.5449V11H51.4609V5.53906H49.375V4.66016H54.6719V5.53906ZM55.1934 7.77148C55.1934 7.15039 55.3145 6.5918 55.5566 6.0957C55.8027 5.59961 56.1426 5.2168 56.5762 4.94727C57.0137 4.67773 57.5117 4.54297 58.0703 4.54297C58.9336 4.54297 59.6309 4.8418 60.1621 5.43945C60.6973 6.03711 60.9648 6.83203 60.9648 7.82422V7.90039C60.9648 8.51758 60.8457 9.07227 60.6074 9.56445C60.373 10.0527 60.0352 10.4336 59.5938 10.707C59.1562 10.9805 58.6523 11.1172 58.082 11.1172C57.2227 11.1172 56.5254 10.8184 55.9902 10.2207C55.459 9.62305 55.1934 8.83203 55.1934 7.84766V7.77148ZM56.2832 7.90039C56.2832 8.60352 56.4453 9.16797 56.7695 9.59375C57.0977 10.0195 57.5352 10.2324 58.082 10.2324C58.6328 10.2324 59.0703 10.0176 59.3945 9.58789C59.7188 9.1543 59.8809 8.54883 59.8809 7.77148C59.8809 7.07617 59.7148 6.51367 59.3828 6.08398C59.0547 5.65039 58.6172 5.43359 58.0703 5.43359C57.5352 5.43359 57.1035 5.64648 56.7754 6.07227C56.4473 6.49805 56.2832 7.10742 56.2832 7.90039ZM62.4238 11V4.66016H64.8965C65.7402 4.66016 66.3867 4.80859 66.8359 5.10547C67.2891 5.39844 67.5156 5.83008 67.5156 6.40039C67.5156 6.69336 67.4277 6.95898 67.252 7.19727C67.0762 7.43164 66.8164 7.61133 66.4727 7.73633C66.8555 7.82617 67.1621 8.00195 67.3926 8.26367C67.627 8.52539 67.7441 8.83789 67.7441 9.20117C67.7441 9.7832 67.5293 10.2285 67.0996 10.5371C66.6738 10.8457 66.0703 11 65.2891 11H62.4238ZM63.5078 8.2168V10.127H65.3008C65.7539 10.127 66.0918 10.043 66.3145 9.875C66.541 9.70703 66.6543 9.4707 66.6543 9.16602C66.6543 8.5332 66.1895 8.2168 65.2598 8.2168H63.5078ZM63.5078 7.34961H64.9082C65.9238 7.34961 66.4316 7.05273 66.4316 6.45898C66.4316 5.86523 65.9512 5.55859 64.9902 5.53906H63.5078V7.34961ZM73.0938 11C73.0312 10.875 72.9805 10.6523 72.9414 10.332C72.4375 10.8555 71.8359 11.1172 71.1367 11.1172C70.5117 11.1172 69.998 10.9414 69.5957 10.5898C69.1973 10.2344 68.998 9.78516 68.998 9.24219C68.998 8.58203 69.248 8.07031 69.748 7.70703C70.252 7.33984 70.959 7.15625 71.8691 7.15625H72.9238V6.6582C72.9238 6.2793 72.8105 5.97852 72.584 5.75586C72.3574 5.5293 72.0234 5.41602 71.582 5.41602C71.1953 5.41602 70.8711 5.51367 70.6094 5.70898C70.3477 5.9043 70.2168 6.14062 70.2168 6.41797H69.127C69.127 6.10156 69.2383 5.79688 69.4609 5.50391C69.6875 5.20703 69.9922 4.97266 70.375 4.80078C70.7617 4.62891 71.1855 4.54297 71.6465 4.54297C72.377 4.54297 72.9492 4.72656 73.3633 5.09375C73.7773 5.45703 73.9922 5.95898 74.0078 6.59961V9.51758C74.0078 10.0996 74.082 10.5625 74.2305 10.9062V11H73.0938ZM71.2949 10.1738C71.6348 10.1738 71.957 10.0859 72.2617 9.91016C72.5664 9.73438 72.7871 9.50586 72.9238 9.22461V7.92383H72.0742C70.7461 7.92383 70.082 8.3125 70.082 9.08984C70.082 9.42969 70.1953 9.69531 70.4219 9.88672C70.6484 10.0781 70.9395 10.1738 71.2949 10.1738ZM80.8867 11H79.8027V8.29297H76.8906V11H75.8008V4.66016H76.8906V7.4082H79.8027V4.66016H80.8867V11Z" fill="white"/>
</g>
<defs>
<clipPath id="clip0">
<rect width="98" height="41" fill="white"/>
</clipPath>
</defs>
</svg>
