<svg width="56" height="56" viewBox="0 0 56 56" fill="none" xmlns="http://www.w3.org/2000/svg">
<circle cx="28" cy="28" r="28" transform="rotate(-180 28 28)" fill="#B34646"/>
<circle cx="28" cy="28" r="28" transform="rotate(-180 28 28)" fill="url(#paint0_linear)"/>
<circle cx="28" cy="28" r="28" transform="rotate(-180 28 28)" fill="url(#paint1_linear)"/>
<g clip-path="url(#clip0)">
<path d="M41.1875 11.9995H38.4851L36.5667 13.8745H41.1875C41.7049 13.8745 42.125 14.2947 42.125 14.812V16.2402C42.125 18.1299 41.4751 19.9829 40.294 21.4587C39.2859 22.7195 37.9439 23.655 36.4131 24.165L35.0911 24.6055C34.6003 24.7693 34.3347 25.3003 34.4978 25.792C34.6287 26.1848 34.9949 26.4329 35.3877 26.4329C35.4856 26.4329 35.5855 26.4172 35.6843 26.3853L37.0064 25.9438C38.8804 25.3196 40.5237 24.1733 41.7588 22.6306C43.2036 20.8235 44 18.5537 44 16.2402V14.812C44 13.2612 42.7383 11.9995 41.1875 11.9995Z" fill="#FFC850"/>
<path d="M20.9089 24.6055L19.5869 24.166C18.0562 23.655 16.7141 22.7195 15.7061 21.4587C14.5249 19.9829 13.875 18.1299 13.875 16.2402V14.812C13.875 14.2947 14.2952 13.8745 14.8125 13.8745H19.6572L17.5149 11.9995H14.8125C13.2617 11.9995 12 13.2612 12 14.812V16.2402C12 18.5537 12.7964 20.8235 14.2412 22.6306C15.4763 24.1733 17.1196 25.3196 18.9937 25.9448L20.3157 26.3853C20.4146 26.4172 20.5144 26.4329 20.6123 26.4329C21.0051 26.4329 21.3713 26.1848 21.5022 25.792C21.6653 25.3003 21.3997 24.7693 20.9089 24.6055Z" fill="#FFC850"/>
<path d="M30.875 30.2996V31.687C30.875 32.2119 31.2874 32.6245 31.8125 32.6245C33.3689 32.6245 34.625 33.8806 34.625 35.437V37.312C34.625 37.8369 34.2126 38.2495 33.6875 38.2495H22.3125C21.7874 38.2495 21.375 37.8369 21.375 37.312V35.437C21.375 33.8806 22.6311 32.6245 24.1875 32.6245C24.7126 32.6245 25.125 32.2119 25.125 31.687V30.2996C21.6375 29.1931 19.0876 26.1182 18.675 22.4619L17.5125 11.9995H38.4875L37.3249 22.4619C36.9124 26.1182 34.3625 29.1931 30.875 30.2996V30.2996Z" fill="#FFDC64"/>
<path d="M36.5 37.312V42.9871H19.5V37.312C19.5 36.7869 19.9124 36.3745 20.4375 36.3745H35.5625C36.0876 36.3745 36.5 36.7869 36.5 37.312Z" fill="#FF8086"/>
<path d="M36.5 37.312V42.9871H28V36.3745H35.5625C36.0876 36.3745 36.5 36.7869 36.5 37.312Z" fill="#E5646E"/>
<path d="M38.375 43.062C38.375 43.5869 37.9626 43.9995 37.4375 43.9995H18.5625C18.0374 43.9995 17.625 43.5869 17.625 43.062C17.625 42.5369 18.0374 42.1245 18.5625 42.1245H37.4375C37.9626 42.1245 38.375 42.5369 38.375 43.062Z" fill="#697C86"/>
<path d="M38.375 43.062C38.375 43.5869 37.9626 43.9995 37.4375 43.9995H28V42.1245H37.4375C37.9626 42.1245 38.375 42.5369 38.375 43.062Z" fill="#465A61"/>
</g>
<defs>
<linearGradient id="paint0_linear" x1="-2.9371e-06" y1="-0.000485807" x2="175.5" y2="192" gradientUnits="userSpaceOnUse">
<stop stop-color="#161521"/>
<stop offset="1" stop-color="#B34646"/>
</linearGradient>
<linearGradient id="paint1_linear" x1="-21.4667" y1="6.06667" x2="35.8589" y2="35.0317" gradientUnits="userSpaceOnUse">
<stop stop-color="#391E25"/>
<stop offset="1" stop-color="#12121C"/>
</linearGradient>
<clipPath id="clip0">
<rect width="32" height="32" fill="white" transform="translate(12 11.9995)"/>
</clipPath>
</defs>
</svg>
