<svg width="56" height="56" viewBox="0 0 56 56" fill="none" xmlns="http://www.w3.org/2000/svg">
<circle cx="28" cy="28" r="28" transform="rotate(-180 28 28)" fill="#B34646"/>
<circle cx="28" cy="28" r="28" transform="rotate(-180 28 28)" fill="url(#paint0_linear)"/>
<circle cx="28" cy="28" r="28" transform="rotate(-180 28 28)" fill="url(#paint1_linear)"/>
<g clip-path="url(#clip0)">
<path d="M43.3369 27.4038C42.4658 26.7935 40.6382 25.9248 37.2903 25.9248H36.7742L30.1736 22.8447C29.4219 22.4939 28.6023 22.312 27.7727 22.312H22.032C21.5425 22.312 21.0583 22.4114 20.6086 22.6042L14.6487 25.1584C14.2632 25.3237 13.8481 25.4089 13.4287 25.4089H13.0322C12.4622 25.4087 12 25.8708 12 26.4409V29.7085C12 30.2075 12.3567 30.635 12.8477 30.7241L17.6775 31.6023V32.1184H42.9678C43.5378 32.1184 44 31.6562 44 31.0862V28.6755C44 28.1677 43.7527 27.6951 43.3369 27.4038Z" fill="#FF8086"/>
<path d="M22.1197 23.3442H26.3177V25.9248H20.1207C19.1597 25.9248 18.876 24.6152 19.751 24.2175L21.2654 23.5293C21.5337 23.4072 21.825 23.3442 22.1197 23.3442V23.3442Z" fill="#E5646E"/>
<path d="M43.5137 30.054C43.1091 30.054 42.7581 29.8101 42.5745 29.4495C41.9778 28.2769 40.7607 27.4731 39.3547 27.4731C37.949 27.4731 36.7319 28.2769 36.135 29.4495C35.9517 29.8101 35.6006 30.054 35.196 30.054H24.9031V27.9895H19.9648C19.7168 27.9895 19.467 27.9478 19.2441 27.8389C18.7703 27.6072 18.2405 27.4731 17.6775 27.4731C17.1135 27.4731 16.5828 27.6064 16.1086 27.8386C15.8855 27.9478 15.635 27.9895 15.3865 27.9895H12V29.7085C12 29.769 12.0056 29.8284 12.0159 29.8862C12.0259 29.9434 12.041 29.9988 12.0601 30.0527C12.0603 30.053 12.0603 30.0535 12.0603 30.054C12.1814 30.394 12.4756 30.6565 12.8477 30.7241L17.6775 31.6023L18.7097 32.1184H42.9678C43.5378 32.1184 44 31.6563 44 31.0862V30.054H43.5137Z" fill="#E5646E"/>
<path d="M42.9678 32.1182H19.7419V31.0859H44C44 31.656 43.5378 32.1182 42.9678 32.1182Z" fill="#DB4655"/>
<path d="M36.7741 25.9248L31.2441 23.3442H23.8303C23.3828 23.3442 23.1413 23.8694 23.4326 24.2092L24.4397 25.3843C24.7338 25.7273 25.1633 25.925 25.6154 25.925H36.7741V25.9248Z" fill="#C3DDFF"/>
<path d="M23.5762 24.3765L24.4397 25.384C24.7339 25.7273 25.1633 25.9248 25.6155 25.9248H36.7742L33.4563 24.3765H23.5762Z" fill="#A4CCFF"/>
<path d="M24.9032 27.9897H23.4786C23.2149 27.9897 23.0643 28.2908 23.2225 28.5017L24.0772 29.6414C24.2723 29.9011 24.5782 30.0542 24.9032 30.0542H26.3275C26.5912 30.0542 26.7418 29.7532 26.5836 29.542L25.7289 28.4026C25.534 28.1426 25.2279 27.9897 24.9032 27.9897Z" fill="#6F6571"/>
<path d="M13.0322 26.957H12V27.9895H13.0322C13.3176 27.9895 13.5483 27.7585 13.5483 27.4731C13.5483 27.188 13.3176 26.957 13.0322 26.957Z" fill="#FF9A9F"/>
<path d="M41.9356 31.0859C41.9356 32.5112 40.78 33.6665 39.3547 33.6665C37.9297 33.6665 36.7742 32.5112 36.7742 31.0859C36.7742 29.6606 37.9297 28.5054 39.3547 28.5054C40.78 28.5054 41.9356 29.6606 41.9356 31.0859Z" fill="#5D5360"/>
<path d="M40.9031 31.0864C40.9031 31.9414 40.21 32.6348 39.3547 32.6348C38.4998 32.6348 37.8064 31.9414 37.8064 31.0864C37.8064 30.2312 38.4998 29.5381 39.3547 29.5381C40.21 29.5381 40.9031 30.2312 40.9031 31.0864Z" fill="#B6B1B7"/>
<path d="M39.3547 29.5381C38.7947 29.5381 38.3042 29.8345 38.0325 30.2803C38.2671 30.1372 38.5437 30.0542 38.8386 30.0542C39.6938 30.0542 40.387 30.7473 40.387 31.6025C40.387 31.8975 40.304 32.1738 40.1606 32.4084C40.6064 32.1365 40.9031 31.6467 40.9031 31.0864C40.9033 30.2312 40.21 29.5381 39.3547 29.5381Z" fill="#9B959D"/>
<path d="M39.8708 31.0859C39.8708 31.3708 39.6399 31.6021 39.3547 31.6021C39.0698 31.6021 38.8386 31.3708 38.8386 31.0859C38.8386 30.8008 39.0698 30.5698 39.3547 30.5698C39.6399 30.5698 39.8708 30.8008 39.8708 31.0859Z" fill="#DAD8DB"/>
<path d="M20.2581 31.0859C20.2581 32.5112 19.1028 33.6665 17.6775 33.6665C16.2522 33.6665 15.0969 32.5112 15.0969 31.0859C15.0969 29.6606 16.2522 28.5054 17.6775 28.5054C19.1028 28.5054 20.2581 29.6606 20.2581 31.0859Z" fill="#5D5360"/>
<path d="M19.2258 31.0864C19.2258 31.9414 18.5325 32.6348 17.6775 32.6348C16.8223 32.6348 16.1292 31.9414 16.1292 31.0864C16.1292 30.2312 16.8223 29.5381 17.6775 29.5381C18.5325 29.5381 19.2258 30.2312 19.2258 31.0864Z" fill="#B6B1B7"/>
<path d="M17.6775 29.5381C17.1172 29.5381 16.6272 29.8347 16.3552 30.2803C16.5898 30.1372 16.8665 30.0542 17.1614 30.0542C18.0164 30.0542 18.7097 30.7473 18.7097 31.6025C18.7097 31.8975 18.6265 32.1741 18.4834 32.4084C18.9292 32.1367 19.2258 31.6467 19.2258 31.0864C19.2258 30.2312 18.5325 29.5381 17.6775 29.5381Z" fill="#9B959D"/>
<path d="M18.1936 31.0859C18.1936 31.3708 17.9624 31.6021 17.6775 31.6021C17.3923 31.6021 17.1614 31.3708 17.1614 31.0859C17.1614 30.8008 17.3923 30.5698 17.6775 30.5698C17.9624 30.5698 18.1936 30.8008 18.1936 31.0859Z" fill="#DAD8DB"/>
<path d="M26.8044 25.9248H28.1633L25.9512 23.3442H24.5925L26.8044 25.9248Z" fill="#857E87"/>
<path d="M25.4773 24.3765L26.8044 25.9248H28.1633L26.8362 24.3765H25.4773Z" fill="#6F6571"/>
<path d="M42.9678 28.5056H43.9905C43.9451 28.0991 43.7488 27.731 43.4287 27.4731H42.9678C42.6826 27.4731 42.4517 27.7043 42.4517 27.9895C42.4517 28.2744 42.6826 28.5056 42.9678 28.5056Z" fill="#FFC269"/>
<path d="M25.4022 29.7693L24.0675 27.9897H23.4786C23.2149 27.9897 23.0643 28.2908 23.2225 28.5017L24.0772 29.6414C24.2723 29.9011 24.5782 30.0542 24.9032 30.0542H25.972C25.7479 30.0542 25.5367 29.9485 25.4022 29.7693Z" fill="#5D5360"/>
</g>
<defs>
<linearGradient id="paint0_linear" x1="-2.9371e-06" y1="-0.000485807" x2="175.5" y2="192" gradientUnits="userSpaceOnUse">
<stop stop-color="#161521"/>
<stop offset="1" stop-color="#B34646"/>
</linearGradient>
<linearGradient id="paint1_linear" x1="-21.4667" y1="6.06667" x2="35.8589" y2="35.0317" gradientUnits="userSpaceOnUse">
<stop stop-color="#391E25"/>
<stop offset="1" stop-color="#12121C"/>
</linearGradient>
<clipPath id="clip0">
<rect width="32" height="32" fill="white" transform="translate(12 11.9995)"/>
</clipPath>
</defs>
</svg>
