<svg width="40" height="40" viewBox="0 0 40 40" fill="none" xmlns="http://www.w3.org/2000/svg">
<path d="M19.995 39.8237H20.005C31.0479 39.8237 40 30.9111 40 19.9168V19.9069C40 8.91263 31.0479 0 20.005 0H19.995C8.95208 0 0 8.91263 0 19.9069V19.9168C0 30.9111 8.95208 39.8237 19.995 39.8237Z" fill="url(#paint0_linear)"/>
<path d="M20.8782 25.3009C21.0619 25.2837 21.2338 25.2034 21.3644 25.0737C21.4668 24.9296 21.519 24.7561 21.5133 24.5798C21.5133 24.5798 21.5133 23.0485 22.1583 22.8312C22.8033 22.6139 23.6566 24.3031 24.5497 24.9552C24.7104 25.0951 24.8978 25.2014 25.1007 25.2676C25.3036 25.3338 25.5178 25.3586 25.7306 25.3404H28.122C28.122 25.3404 29.3624 25.2515 28.777 24.2142C28.3144 23.3737 27.7102 22.6185 26.9908 21.9816C25.4924 20.4998 25.6909 20.7467 27.4969 18.1782C28.5884 16.6174 29.0349 15.669 28.896 15.2146C28.7571 14.7601 27.9037 14.9281 27.9037 14.9281H25.2146C25.0955 14.9125 24.9744 14.9332 24.8673 14.9873C24.7671 15.0716 24.686 15.176 24.6291 15.2936C24.351 16.0599 24.0194 16.806 23.6368 17.5262C22.446 19.6996 21.9697 19.8082 21.7713 19.6798C21.3148 19.3637 21.4339 18.4153 21.4339 17.704C21.4339 15.6097 21.7316 14.7404 20.8484 14.5033C20.4412 14.3946 20.0191 14.3513 19.5981 14.3749C18.8454 14.3007 18.0855 14.3814 17.3654 14.6119C17.0578 14.77 16.8296 15.1257 16.9685 15.1454C17.2779 15.181 17.5619 15.333 17.7624 15.5702C17.9498 15.979 18.0414 16.4249 18.0303 16.8742C18.0303 16.8742 18.1891 19.3439 17.6631 19.6502C17.296 19.8576 16.7998 19.4328 15.7381 17.4669C15.3646 16.7795 15.0332 16.0703 14.7458 15.343C14.6981 15.2224 14.6235 15.1143 14.5274 15.0269C14.4032 14.9381 14.2609 14.8774 14.1107 14.849H11.5604C11.5604 14.849 11.1734 14.849 11.0345 15.0367C10.8956 15.2244 11.0345 15.5208 11.0345 15.5208C11.0345 15.5208 13.0191 20.5097 15.3014 23.0189C15.8421 23.6715 16.5167 24.2013 17.2801 24.5727C18.0434 24.9442 18.8778 25.1487 19.7271 25.1725L20.8782 25.3009Z" fill="#B34646"/>
<defs>
<linearGradient id="paint0_linear" x1="55.3333" y1="35.5095" x2="14.4603" y2="14.766" gradientUnits="userSpaceOnUse">
<stop stop-color="#391E25"/>
<stop offset="1" stop-color="#12121C"/>
</linearGradient>
</defs>
</svg>
